<svg width="20" height="20" viewBox="0 0 20 20" fill="none" xmlns="http://www.w3.org/2000/svg">
<g clip-path="url(#clip0_1019_2225)">
<path d="M19.6551 20H0.344843C0.154414 20 0 19.7643 0 19.4737V0.526339C0 0.235684 0.154414 0 0.344843 0H19.6552C19.8456 0 20 0.235684 20 0.526339V19.4737C20 19.7644 19.8455 20 19.6551 20Z" fill="#F5F5F5"/>
<path d="M20 1.53853H0V0.526339C0 0.235684 0.154414 0 0.344843 0H19.6552C19.8456 0 20 0.235684 20 0.526339L20 1.53853Z" fill="#FF4B55"/>
<path d="M20 6.15381H0V7.69228H20V6.15381Z" fill="#FF4B55"/>
<path d="M20 3.07666H0V4.61513H20V3.07666Z" fill="#FF4B55"/>
<path d="M20 10.7695H0.344843C0.154414 10.7695 0 10.5338 0 10.2432V9.23096H20V10.7695Z" fill="#FF4B55"/>
<path d="M20 15.3853H0V16.9237H20V15.3853Z" fill="#FF4B55"/>
<path d="M19.6551 19.9999H0.344843C0.154414 19.9999 0 19.7642 0 19.4736V18.4614H20V19.4736C20 19.7643 19.8456 19.9999 19.6551 19.9999Z" fill="#FF4B55"/>
<path d="M20 12.3081H0V13.8466H20V12.3081Z" fill="#FF4B55"/>
<path d="M8.96549 0.000976562H0.344843C0.154414 0.000976562 0 0.236601 0 0.527256V10.2438C0 10.5344 0.154414 10.7701 0.344843 10.7701H8.96553C9.15596 10.7701 9.31037 10.5344 9.31037 10.2438V0.527256C9.31033 0.236601 9.15592 0.000976562 8.96549 0.000976562Z" fill="#41479B"/>
<path d="M0.96846 1.20825L1.04479 1.55763L1.28608 1.56043C1.31733 1.56085 1.33026 1.62166 1.30514 1.64998L1.11104 1.8688L1.18385 2.21991C1.1933 2.26534 1.15936 2.30302 1.13393 2.27524L0.93764 2.06114L0.741351 2.2753C0.715922 2.30302 0.682055 2.2654 0.69143 2.21997L0.764242 1.86886L0.570141 1.65004C0.545024 1.62166 0.557953 1.56091 0.589203 1.56049L0.830492 1.55769L0.90682 1.20831C0.916663 1.163 0.958538 1.163 0.96846 1.20825Z" fill="#F5F5F5"/>
<path d="M0.96846 3.03584L1.04479 3.38522L1.28608 3.38803C1.31733 3.38844 1.33026 3.44926 1.30514 3.47758L1.11104 3.69639L1.18385 4.0475C1.1933 4.09293 1.15936 4.13061 1.13393 4.10283L0.93764 3.88873L0.741351 4.10289C0.715922 4.13061 0.682055 4.09299 0.69143 4.04756L0.764242 3.69645L0.570141 3.47764C0.545024 3.44926 0.557953 3.3885 0.589203 3.38809L0.830492 3.38528L0.90682 3.0359C0.916663 2.99065 0.958538 2.99065 0.96846 3.03584Z" fill="#F5F5F5"/>
<path d="M0.96846 4.86348L1.04479 5.21286L1.28608 5.21566C1.31733 5.21608 1.33026 5.27689 1.30514 5.30521L1.11104 5.52403L1.18385 5.87514C1.1933 5.92057 1.15936 5.95825 1.13393 5.93047L0.93764 5.71637L0.741351 5.93053C0.715922 5.95825 0.682055 5.92063 0.69143 5.8752L0.764242 5.52409L0.570141 5.30527C0.545024 5.27689 0.557953 5.21614 0.589203 5.21572L0.830492 5.21292L0.90682 4.86354C0.916663 4.81828 0.958538 4.81828 0.96846 4.86348Z" fill="#F5F5F5"/>
<path d="M0.96846 6.69116L1.04479 7.04054L1.28608 7.04334C1.31733 7.04376 1.33026 7.10458 1.30514 7.1329L1.11104 7.35171L1.18385 7.70282C1.1933 7.74825 1.15936 7.78593 1.13393 7.75815L0.93764 7.54405L0.741351 7.75821C0.715922 7.78593 0.682055 7.74831 0.69143 7.70288L0.764242 7.35177L0.570141 7.13295C0.545024 7.10457 0.557953 7.04382 0.589203 7.0434L0.830492 7.0406L0.90682 6.69122C0.916663 6.64591 0.958538 6.64591 0.96846 6.69116Z" fill="#F5F5F5"/>
<path d="M0.96846 8.51884L1.04479 8.86822L1.28608 8.87103C1.31733 8.87144 1.33026 8.93226 1.30514 8.96058L1.11104 9.17939L1.18385 9.5305C1.1933 9.57593 1.15936 9.61362 1.13393 9.58583L0.93764 9.37173L0.741351 9.58589C0.715922 9.61362 0.682055 9.57599 0.69143 9.53056L0.764242 9.17945L0.570141 8.96064C0.545024 8.93226 0.557953 8.8715 0.589203 8.87109L0.830492 8.86828L0.90682 8.5189C0.916663 8.47353 0.958538 8.47353 0.96846 8.51884Z" fill="#F5F5F5"/>
<path d="M1.8979 2.10421L1.97423 2.45359L2.21552 2.45639C2.24677 2.45681 2.2597 2.51762 2.23458 2.54594L2.04048 2.76475L2.11329 3.11587C2.12275 3.1613 2.0888 3.19898 2.06337 3.17119L1.86708 2.95703L1.67079 3.17119C1.64537 3.19892 1.6115 3.1613 1.62087 3.11587L1.69369 2.76475L1.49958 2.54594C1.47447 2.51756 1.4874 2.45681 1.51865 2.45639L1.75994 2.45359L1.83626 2.10421C1.84607 2.05901 1.88802 2.05901 1.8979 2.10421Z" fill="#F5F5F5"/>
<path d="M1.8979 3.93189L1.97423 4.28127L2.21552 4.28407C2.24677 4.28449 2.2597 4.3453 2.23458 4.37363L2.04048 4.59244L2.11329 4.94355C2.12275 4.98898 2.0888 5.02666 2.06337 4.99888L1.86708 4.78472L1.67079 4.99888C1.64537 5.0266 1.6115 4.98904 1.62087 4.94355L1.69369 4.59244L1.49958 4.37363C1.47447 4.34525 1.4874 4.28449 1.51865 4.28407L1.75994 4.28127L1.83626 3.93189C1.84607 3.88664 1.88802 3.88664 1.8979 3.93189Z" fill="#F5F5F5"/>
<path d="M1.8979 5.75953L1.97423 6.10891L2.21552 6.11171C2.24677 6.11213 2.2597 6.17294 2.23458 6.20126L2.04048 6.42007L2.11329 6.77118C2.12275 6.81661 2.0888 6.85429 2.06337 6.82651L1.86708 6.61235L1.67079 6.82651C1.64537 6.85423 1.6115 6.81661 1.62087 6.77118L1.69369 6.42007L1.49958 6.20126C1.47447 6.17288 1.4874 6.11213 1.51865 6.11171L1.75994 6.10891L1.83626 5.75953C1.84607 5.71427 1.88802 5.71427 1.8979 5.75953Z" fill="#F5F5F5"/>
<path d="M1.8979 7.58712L1.97423 7.9365L2.21552 7.9393C2.24677 7.93972 2.2597 8.00053 2.23458 8.02885L2.04048 8.24767L2.11329 8.59878C2.12275 8.64421 2.0888 8.68189 2.06337 8.65411L1.86708 8.43995L1.67079 8.65411C1.64537 8.68183 1.6115 8.64421 1.62087 8.59878L1.69369 8.24767L1.49958 8.02885C1.47447 8.00047 1.4874 7.93972 1.51865 7.9393L1.75994 7.9365L1.83626 7.58712C1.84607 7.54192 1.88802 7.54192 1.8979 7.58712Z" fill="#F5F5F5"/>
<path d="M2.82735 1.20826L2.90368 1.55764L3.14496 1.56044C3.17621 1.56086 3.18914 1.62167 3.16403 1.64999L2.96993 1.8688L3.04274 2.21991C3.05219 2.26535 3.01825 2.30303 2.99282 2.27524L2.79653 2.06108L2.60024 2.27524C2.57481 2.30297 2.54094 2.26535 2.55032 2.21991L2.62313 1.8688L2.42903 1.64999C2.40391 1.62161 2.41684 1.56086 2.44809 1.56044L2.68938 1.55764L2.76571 1.20826C2.77555 1.163 2.81747 1.163 2.82735 1.20826Z" fill="#F5F5F5"/>
<path d="M2.82735 3.03585L2.90368 3.38523L3.14496 3.38803C3.17621 3.38845 3.18914 3.44926 3.16403 3.47758L2.96993 3.6964L3.04274 4.04751C3.05219 4.09294 3.01825 4.13062 2.99282 4.10284L2.79653 3.88868L2.60024 4.10284C2.57481 4.13056 2.54094 4.09294 2.55032 4.04751L2.62313 3.6964L2.42903 3.47758C2.40391 3.4492 2.41684 3.38845 2.44809 3.38803L2.68938 3.38523L2.76571 3.03585C2.77555 2.99065 2.81747 2.99065 2.82735 3.03585Z" fill="#F5F5F5"/>
<path d="M2.82735 4.86348L2.90368 5.21287L3.14496 5.21567C3.17621 5.21609 3.18914 5.2769 3.16403 5.30522L2.96993 5.52403L3.04274 5.87515C3.05219 5.92058 3.01825 5.95826 2.99282 5.93048L2.79653 5.71631L2.60024 5.93048C2.57481 5.9582 2.54094 5.92058 2.55032 5.87515L2.62313 5.52403L2.42903 5.30522C2.40391 5.27684 2.41684 5.21609 2.44809 5.21567L2.68938 5.21287L2.76571 4.86348C2.77555 4.81829 2.81747 4.81829 2.82735 4.86348Z" fill="#F5F5F5"/>
<path d="M2.82735 6.69117L2.90368 7.04055L3.14496 7.04335C3.17621 7.04377 3.18914 7.10458 3.16403 7.1329L2.96993 7.35171L3.04274 7.70282C3.05219 7.74826 3.01825 7.78594 2.99282 7.75815L2.79653 7.54399L2.60024 7.75815C2.57481 7.78588 2.54094 7.74826 2.55032 7.70282L2.62313 7.35171L2.42903 7.1329C2.40391 7.10452 2.41684 7.04377 2.44809 7.04335L2.68938 7.04055L2.76571 6.69117C2.77555 6.64591 2.81747 6.64591 2.82735 6.69117Z" fill="#F5F5F5"/>
<path d="M2.82735 8.51885L2.90368 8.86823L3.14496 8.87103C3.17621 8.87145 3.18914 8.93226 3.16403 8.96058L2.96993 9.17939L3.04274 9.53051C3.05219 9.57594 3.01825 9.61362 2.99282 9.58583L2.79653 9.37167L2.60024 9.58583C2.57481 9.61356 2.54094 9.57594 2.55032 9.53051L2.62313 9.17939L2.42903 8.96058C2.40391 8.9322 2.41684 8.87145 2.44809 8.87103L2.68938 8.86823L2.76571 8.51885C2.77555 8.47354 2.81747 8.47354 2.82735 8.51885Z" fill="#F5F5F5"/>
<path d="M3.75679 2.10421L3.83312 2.45359L4.07441 2.45639C4.10566 2.45681 4.11859 2.51762 4.09347 2.54594L3.89937 2.76475L3.97218 3.11587C3.98163 3.1613 3.94769 3.19898 3.92226 3.17119L3.72597 2.95703L3.52968 3.17119C3.50425 3.19892 3.47039 3.1613 3.47976 3.11587L3.55257 2.76475L3.35847 2.54594C3.33335 2.51756 3.34628 2.45681 3.37753 2.45639L3.61882 2.45359L3.69515 2.10421C3.70496 2.05901 3.74691 2.05901 3.75679 2.10421Z" fill="#F5F5F5"/>
<path d="M3.75679 3.93189L3.83312 4.28127L4.07441 4.28407C4.10566 4.28449 4.11859 4.3453 4.09347 4.37363L3.89937 4.59244L3.97218 4.94355C3.98163 4.98898 3.94769 5.02666 3.92226 4.99888L3.72597 4.78472L3.52968 4.99888C3.50425 5.0266 3.47039 4.98904 3.47976 4.94355L3.55257 4.59244L3.35847 4.37363C3.33335 4.34525 3.34628 4.28449 3.37753 4.28407L3.61882 4.28127L3.69515 3.93189C3.70496 3.88664 3.74691 3.88664 3.75679 3.93189Z" fill="#F5F5F5"/>
<path d="M3.75679 5.75953L3.83312 6.10891L4.07441 6.11171C4.10566 6.11213 4.11859 6.17294 4.09347 6.20126L3.89937 6.42007L3.97218 6.77118C3.98163 6.81661 3.94769 6.85429 3.92226 6.82651L3.72597 6.61235L3.52968 6.82651C3.50425 6.85423 3.47039 6.81661 3.47976 6.77118L3.55257 6.42007L3.35847 6.20126C3.33335 6.17288 3.34628 6.11213 3.37753 6.11171L3.61882 6.10891L3.69515 5.75953C3.70496 5.71427 3.74691 5.71427 3.75679 5.75953Z" fill="#F5F5F5"/>
<path d="M3.75679 7.58712L3.83312 7.9365L4.07441 7.9393C4.10566 7.93972 4.11859 8.00053 4.09347 8.02885L3.89937 8.24767L3.97218 8.59878C3.98163 8.64421 3.94769 8.68189 3.92226 8.65411L3.72597 8.43995L3.52968 8.65411C3.50425 8.68183 3.47039 8.64421 3.47976 8.59878L3.55257 8.24767L3.35847 8.02885C3.33335 8.00047 3.34628 7.93972 3.37753 7.9393L3.61882 7.9365L3.69515 7.58712C3.70496 7.54192 3.74691 7.54192 3.75679 7.58712Z" fill="#F5F5F5"/>
<path d="M4.68627 1.20826L4.7626 1.55764L5.00389 1.56044C5.03514 1.56086 5.04807 1.62167 5.02295 1.64999L4.82885 1.8688L4.90166 2.21991C4.91112 2.26535 4.87717 2.30303 4.85174 2.27524L4.65541 2.06108L4.45913 2.27524C4.4337 2.30297 4.39983 2.26535 4.4092 2.21991L4.48202 1.8688L4.28791 1.64999C4.2628 1.62161 4.27573 1.56086 4.30698 1.56044L4.54827 1.55764L4.62459 1.20826C4.63448 1.163 4.67639 1.163 4.68627 1.20826Z" fill="#F5F5F5"/>
<path d="M4.68627 3.03585L4.7626 3.38523L5.00389 3.38803C5.03514 3.38845 5.04807 3.44926 5.02295 3.47758L4.82885 3.6964L4.90166 4.04751C4.91112 4.09294 4.87717 4.13062 4.85174 4.10284L4.65541 3.88868L4.45913 4.10284C4.4337 4.13056 4.39983 4.09294 4.4092 4.04751L4.48202 3.6964L4.28791 3.47758C4.2628 3.4492 4.27573 3.38845 4.30698 3.38803L4.54827 3.38523L4.62459 3.03585C4.63448 2.99065 4.67639 2.99065 4.68627 3.03585Z" fill="#F5F5F5"/>
<path d="M4.68627 4.86348L4.7626 5.21287L5.00389 5.21567C5.03514 5.21609 5.04807 5.2769 5.02295 5.30522L4.82885 5.52403L4.90166 5.87515C4.91112 5.92058 4.87717 5.95826 4.85174 5.93048L4.65541 5.71631L4.45913 5.93048C4.4337 5.9582 4.39983 5.92058 4.4092 5.87515L4.48202 5.52403L4.28791 5.30522C4.2628 5.27684 4.27573 5.21609 4.30698 5.21567L4.54827 5.21287L4.62459 4.86348C4.63448 4.81829 4.67639 4.81829 4.68627 4.86348Z" fill="#F5F5F5"/>
<path d="M4.68627 6.69117L4.7626 7.04055L5.00389 7.04335C5.03514 7.04377 5.04807 7.10458 5.02295 7.1329L4.82885 7.35171L4.90166 7.70282C4.91112 7.74826 4.87717 7.78594 4.85174 7.75815L4.65541 7.54399L4.45913 7.75815C4.4337 7.78588 4.39983 7.74826 4.4092 7.70282L4.48202 7.35171L4.28791 7.1329C4.2628 7.10452 4.27573 7.04377 4.30698 7.04335L4.54827 7.04055L4.62459 6.69117C4.63448 6.64591 4.67639 6.64591 4.68627 6.69117Z" fill="#F5F5F5"/>
<path d="M4.68627 8.51885L4.7626 8.86823L5.00389 8.87103C5.03514 8.87145 5.04807 8.93226 5.02295 8.96058L4.82885 9.17939L4.90166 9.53051C4.91112 9.57594 4.87717 9.61362 4.85174 9.58583L4.65541 9.37167L4.45913 9.58583C4.4337 9.61356 4.39983 9.57594 4.4092 9.53051L4.48202 9.17939L4.28791 8.96058C4.2628 8.9322 4.27573 8.87145 4.30698 8.87103L4.54827 8.86823L4.62459 8.51885C4.63448 8.47354 4.67639 8.47354 4.68627 8.51885Z" fill="#F5F5F5"/>
<path d="M5.61568 2.10421L5.69201 2.45359L5.93329 2.45639C5.96454 2.45681 5.97747 2.51762 5.95236 2.54594L5.75826 2.76475L5.83107 3.11587C5.84052 3.1613 5.80658 3.19898 5.78115 3.17119L5.58486 2.95703L5.38857 3.17119C5.36314 3.19892 5.32927 3.1613 5.33865 3.11587L5.41146 2.76475L5.21736 2.54594C5.19224 2.51756 5.20517 2.45681 5.23642 2.45639L5.47771 2.45359L5.55404 2.10421C5.56392 2.05901 5.60579 2.05901 5.61568 2.10421Z" fill="#F5F5F5"/>
<path d="M5.61568 3.93189L5.69201 4.28127L5.93329 4.28407C5.96454 4.28449 5.97747 4.3453 5.95236 4.37363L5.75826 4.59244L5.83107 4.94355C5.84052 4.98898 5.80658 5.02666 5.78115 4.99888L5.58486 4.78472L5.38857 4.99888C5.36314 5.0266 5.32927 4.98904 5.33865 4.94355L5.41146 4.59244L5.21736 4.37363C5.19224 4.34525 5.20517 4.28449 5.23642 4.28407L5.47771 4.28127L5.55404 3.93189C5.56392 3.88664 5.60579 3.88664 5.61568 3.93189Z" fill="#F5F5F5"/>
<path d="M5.61568 5.75953L5.69201 6.10891L5.93329 6.11171C5.96454 6.11213 5.97747 6.17294 5.95236 6.20126L5.75826 6.42007L5.83107 6.77118C5.84052 6.81661 5.80658 6.85429 5.78115 6.82651L5.58486 6.61235L5.38857 6.82651C5.36314 6.85423 5.32927 6.81661 5.33865 6.77118L5.41146 6.42007L5.21736 6.20126C5.19224 6.17288 5.20517 6.11213 5.23642 6.11171L5.47771 6.10891L5.55404 5.75953C5.56392 5.71427 5.60579 5.71427 5.61568 5.75953Z" fill="#F5F5F5"/>
<path d="M5.61568 7.58712L5.69201 7.9365L5.93329 7.9393C5.96454 7.93972 5.97747 8.00053 5.95236 8.02885L5.75826 8.24767L5.83107 8.59878C5.84052 8.64421 5.80658 8.68189 5.78115 8.65411L5.58486 8.43995L5.38857 8.65411C5.36314 8.68183 5.32927 8.64421 5.33865 8.59878L5.41146 8.24767L5.21736 8.02885C5.19224 8.00047 5.20517 7.93972 5.23642 7.9393L5.47771 7.9365L5.55404 7.58712C5.56392 7.54192 5.60579 7.54192 5.61568 7.58712Z" fill="#F5F5F5"/>
<path d="M6.54512 1.20826L6.62145 1.55764L6.86274 1.56044C6.89399 1.56086 6.90692 1.62167 6.8818 1.64999L6.6877 1.8688L6.76051 2.21991C6.76997 2.26535 6.73602 2.30303 6.71059 2.27524L6.5143 2.06108L6.31801 2.27524C6.29258 2.30297 6.25872 2.26535 6.26809 2.21991L6.3409 1.8688L6.1468 1.64999C6.12168 1.62161 6.13461 1.56086 6.16586 1.56044L6.40715 1.55764L6.48348 1.20826C6.49329 1.163 6.53524 1.163 6.54512 1.20826Z" fill="#F5F5F5"/>
<path d="M6.54512 3.03585L6.62145 3.38523L6.86274 3.38803C6.89399 3.38845 6.90692 3.44926 6.8818 3.47758L6.6877 3.6964L6.76051 4.04751C6.76997 4.09294 6.73602 4.13062 6.71059 4.10284L6.5143 3.88868L6.31801 4.10284C6.29258 4.13056 6.25872 4.09294 6.26809 4.04751L6.3409 3.6964L6.1468 3.47758C6.12168 3.4492 6.13461 3.38845 6.16586 3.38803L6.40715 3.38523L6.48348 3.03585C6.49329 2.99065 6.53524 2.99065 6.54512 3.03585Z" fill="#F5F5F5"/>
<path d="M6.54512 4.86348L6.62145 5.21287L6.86274 5.21567C6.89399 5.21609 6.90692 5.2769 6.8818 5.30522L6.6877 5.52403L6.76051 5.87515C6.76997 5.92058 6.73602 5.95826 6.71059 5.93048L6.5143 5.71631L6.31801 5.93048C6.29258 5.9582 6.25872 5.92058 6.26809 5.87515L6.3409 5.52403L6.1468 5.30522C6.12168 5.27684 6.13461 5.21609 6.16586 5.21567L6.40715 5.21287L6.48348 4.86348C6.49329 4.81829 6.53524 4.81829 6.54512 4.86348Z" fill="#F5F5F5"/>
<path d="M6.54512 6.69117L6.62145 7.04055L6.86274 7.04335C6.89399 7.04377 6.90692 7.10458 6.8818 7.1329L6.6877 7.35171L6.76051 7.70282C6.76997 7.74826 6.73602 7.78594 6.71059 7.75815L6.5143 7.54399L6.31801 7.75815C6.29258 7.78588 6.25872 7.74826 6.26809 7.70282L6.3409 7.35171L6.1468 7.1329C6.12168 7.10452 6.13461 7.04377 6.16586 7.04335L6.40715 7.04055L6.48348 6.69117C6.49329 6.64591 6.53524 6.64591 6.54512 6.69117Z" fill="#F5F5F5"/>
<path d="M6.54512 8.51885L6.62145 8.86823L6.86274 8.87103C6.89399 8.87145 6.90692 8.93226 6.8818 8.96058L6.6877 9.17939L6.76051 9.53051C6.76997 9.57594 6.73602 9.61362 6.71059 9.58583L6.5143 9.37167L6.31801 9.58583C6.29258 9.61356 6.25872 9.57594 6.26809 9.53051L6.3409 9.17939L6.1468 8.96058C6.12168 8.9322 6.13461 8.87145 6.16586 8.87103L6.40715 8.86823L6.48348 8.51885C6.49329 8.47354 6.53524 8.47354 6.54512 8.51885Z" fill="#F5F5F5"/>
<path d="M7.47456 2.10421L7.55089 2.45359L7.79218 2.45639C7.82343 2.45681 7.83636 2.51762 7.81124 2.54594L7.61714 2.76475L7.68995 3.11587C7.69941 3.1613 7.66546 3.19898 7.64003 3.17119L7.44374 2.95703L7.24745 3.17119C7.22202 3.19892 7.18816 3.1613 7.19753 3.11587L7.27034 2.76475L7.07624 2.54594C7.05113 2.51756 7.06406 2.45681 7.09531 2.45639L7.33659 2.45359L7.41292 2.10421C7.42277 2.05901 7.46472 2.05901 7.47456 2.10421Z" fill="#F5F5F5"/>
<path d="M7.47456 3.93189L7.55089 4.28127L7.79218 4.28407C7.82343 4.28449 7.83636 4.3453 7.81124 4.37363L7.61714 4.59244L7.68995 4.94355C7.69941 4.98898 7.66546 5.02666 7.64003 4.99888L7.44374 4.78472L7.24745 4.99888C7.22202 5.0266 7.18816 4.98904 7.19753 4.94355L7.27034 4.59244L7.07624 4.37363C7.05113 4.34525 7.06406 4.28449 7.09531 4.28407L7.33659 4.28127L7.41292 3.93189C7.42277 3.88664 7.46472 3.88664 7.47456 3.93189Z" fill="#F5F5F5"/>
<path d="M7.47456 5.75953L7.55089 6.10891L7.79218 6.11171C7.82343 6.11213 7.83636 6.17294 7.81124 6.20126L7.61714 6.42007L7.68995 6.77118C7.69941 6.81661 7.66546 6.85429 7.64003 6.82651L7.44374 6.61235L7.24745 6.82651C7.22202 6.85423 7.18816 6.81661 7.19753 6.77118L7.27034 6.42007L7.07624 6.20126C7.05113 6.17288 7.06406 6.11213 7.09531 6.11171L7.33659 6.10891L7.41292 5.75953C7.42277 5.71427 7.46472 5.71427 7.47456 5.75953Z" fill="#F5F5F5"/>
<path d="M7.47456 7.58712L7.55089 7.9365L7.79218 7.9393C7.82343 7.93972 7.83636 8.00053 7.81124 8.02885L7.61714 8.24767L7.68995 8.59878C7.69941 8.64421 7.66546 8.68189 7.64003 8.65411L7.44374 8.43995L7.24745 8.65411C7.22202 8.68183 7.18816 8.64421 7.19753 8.59878L7.27034 8.24767L7.07624 8.02885C7.05113 8.00047 7.06406 7.93972 7.09531 7.9393L7.33659 7.9365L7.41292 7.58712C7.42277 7.54192 7.46472 7.54192 7.47456 7.58712Z" fill="#F5F5F5"/>
<path d="M8.40376 1.20826L8.48009 1.55764L8.72138 1.56044C8.75263 1.56086 8.76556 1.62167 8.74044 1.64999L8.54634 1.8688L8.61915 2.21991C8.6286 2.26535 8.59466 2.30303 8.56923 2.27524L8.37294 2.06108L8.17665 2.27524C8.15122 2.30297 8.11736 2.26535 8.12673 2.21991L8.19954 1.8688L8.00544 1.64999C7.98033 1.62161 7.99326 1.56086 8.02451 1.56044L8.26579 1.55764L8.34212 1.20826C8.35197 1.163 8.39384 1.163 8.40376 1.20826Z" fill="#F5F5F5"/>
<path d="M8.40376 3.03585L8.48009 3.38523L8.72138 3.38803C8.75263 3.38845 8.76556 3.44926 8.74044 3.47758L8.54634 3.6964L8.61915 4.04751C8.6286 4.09294 8.59466 4.13062 8.56923 4.10284L8.37294 3.88868L8.17665 4.10284C8.15122 4.13056 8.11736 4.09294 8.12673 4.04751L8.19954 3.6964L8.00544 3.47758C7.98033 3.4492 7.99326 3.38845 8.02451 3.38803L8.26579 3.38523L8.34212 3.03585C8.35197 2.99065 8.39384 2.99065 8.40376 3.03585Z" fill="#F5F5F5"/>
<path d="M8.40376 4.86348L8.48009 5.21287L8.72138 5.21567C8.75263 5.21609 8.76556 5.2769 8.74044 5.30522L8.54634 5.52403L8.61915 5.87515C8.6286 5.92058 8.59466 5.95826 8.56923 5.93048L8.37294 5.71631L8.17665 5.93048C8.15122 5.9582 8.11736 5.92058 8.12673 5.87515L8.19954 5.52403L8.00544 5.30522C7.98033 5.27684 7.99326 5.21609 8.02451 5.21567L8.26579 5.21287L8.34212 4.86348C8.35197 4.81829 8.39384 4.81829 8.40376 4.86348Z" fill="#F5F5F5"/>
<path d="M8.40376 6.69117L8.48009 7.04055L8.72138 7.04335C8.75263 7.04377 8.76556 7.10458 8.74044 7.1329L8.54634 7.35171L8.61915 7.70282C8.6286 7.74826 8.59466 7.78594 8.56923 7.75815L8.37294 7.54399L8.17665 7.75815C8.15122 7.78588 8.11736 7.74826 8.12673 7.70282L8.19954 7.35171L8.00544 7.1329C7.98033 7.10452 7.99326 7.04377 8.02451 7.04335L8.26579 7.04055L8.34212 6.69117C8.35197 6.64591 8.39384 6.64591 8.40376 6.69117Z" fill="#F5F5F5"/>
<path d="M8.40376 8.51885L8.48009 8.86823L8.72138 8.87103C8.75263 8.87145 8.76556 8.93226 8.74044 8.96058L8.54634 9.17939L8.61915 9.53051C8.6286 9.57594 8.59466 9.61362 8.56923 9.58583L8.37294 9.37167L8.17665 9.58583C8.15122 9.61356 8.11736 9.57594 8.12673 9.53051L8.19954 9.17939L8.00544 8.96058C7.98033 8.9322 7.99326 8.87145 8.02451 8.87103L8.26579 8.86823L8.34212 8.51885C8.35197 8.47354 8.39384 8.47354 8.40376 8.51885Z" fill="#F5F5F5"/>
</g>
<defs>
<clipPath id="clip0_1019_2225">
<rect width="20" height="20" rx="10" fill="white"/>
</clipPath>
</defs>
</svg>
